<svg width="40" height="23" viewBox="0 0 40 23" fill="none" xmlns="http://www.w3.org/2000/svg">
<path d="M28.699 5.724C29.4316 5.7263 30.1565 5.87671 30.8316 6.16649C31.5067 6.45627 32.1185 6.87967 32.6317 7.41212C33.1449 7.94458 33.5492 8.57551 33.8212 9.2683C34.0931 9.9611 34.2273 10.702 34.2159 11.448C34.2159 12.9661 33.6238 14.422 32.5697 15.4955C31.5156 16.5689 30.0861 17.172 28.5954 17.172C27.1048 17.172 25.6752 16.5689 24.6212 15.4955C23.5671 14.422 22.975 12.9661 22.975 11.448C22.975 8.4118 21.7907 5.49996 19.6826 3.35304C17.5745 1.20613 14.7153 0 11.7341 0C8.75281 8.19798e-05 5.8937 1.20626 3.78568 3.35321C1.67766 5.50015 0.493414 8.41198 0.493454 11.4482C0.493474 14.4843 1.67774 17.396 3.78573 19.5429C5.89373 21.6898 8.75278 22.896 11.734 22.8961V17.1721C10.2434 17.1721 8.81379 16.569 7.75977 15.4955C6.70575 14.4221 6.1136 12.9662 6.1136 11.4481C6.11362 9.92997 6.70579 8.47405 7.75984 7.40059C8.8139 6.32714 10.2435 5.72408 11.7341 5.72408C13.2247 5.7241 14.6543 6.32716 15.7083 7.40059C16.7624 8.47403 17.3545 9.92992 17.3546 11.448C17.3546 12.9514 17.6453 14.44 18.2102 15.829C18.7751 17.2179 19.6031 18.48 20.6469 19.543C21.6908 20.6061 22.9299 21.4493 24.2938 22.0246C25.6576 22.6 27.1193 22.8961 28.5955 22.8961C30.0717 22.8961 31.5334 22.6 32.8972 22.0247C34.261 21.4493 35.5002 20.6061 36.544 19.543C37.5878 18.48 38.4158 17.218 38.9807 15.829C39.5456 14.4401 39.8364 12.9515 39.8364 11.4481C39.8482 9.95029 39.5691 8.46491 39.0149 7.07747C38.4607 5.69003 37.6425 4.42794 36.6074 3.36388C35.5723 2.29982 34.3408 1.4548 32.9837 0.877478C31.6266 0.300158 30.1707 0.00194173 28.7 0" fill="url(#paint0_linear_2_507)"/>
<path d="M28.6963 5.73078C30.2495 5.73078 31.5085 4.4485 31.5085 2.86673C31.5085 1.28496 30.2495 0.00268555 28.6963 0.00268555C27.1431 0.00268555 25.8841 1.28496 25.8841 2.86673C25.8841 4.4485 27.1431 5.73078 28.6963 5.73078Z" fill="url(#paint1_linear_2_507)"/>
<path d="M11.7359 22.8946C13.289 22.8946 14.5481 21.6123 14.5481 20.0306C14.5481 18.4488 13.289 17.1665 11.7359 17.1665C10.1827 17.1665 8.92363 18.4488 8.92363 20.0306C8.92363 21.6123 10.1827 22.8946 11.7359 22.8946Z" fill="url(#paint2_linear_2_507)"/>
<defs>
<linearGradient id="paint0_linear_2_507" x1="20.1651" y1="0" x2="20.1651" y2="22.8961" gradientUnits="userSpaceOnUse">
<stop stop-color="#07D2B3"/>
<stop offset="1" stop-color="#0D54EF"/>
</linearGradient>
<linearGradient id="paint1_linear_2_507" x1="28.6963" y1="0.00268555" x2="28.6963" y2="5.73078" gradientUnits="userSpaceOnUse">
<stop stop-color="#07D2B3"/>
<stop offset="1" stop-color="#0D54EF"/>
</linearGradient>
<linearGradient id="paint2_linear_2_507" x1="8.92363" y1="22.8946" x2="14.6508" y2="17.2711" gradientUnits="userSpaceOnUse">
<stop stop-color="#07D2B3"/>
<stop offset="1" stop-color="#0D54EF"/>
</linearGradient>
</defs>
</svg>
